<svg xmlns="http://www.w3.org/2000/svg" xmlns:xlink="http://www.w3.org/1999/xlink" width="500" zoomAndPan="magnify" viewBox="0 0 375 374.999991" height="500" preserveAspectRatio="xMidYMid meet" version="1.0"><defs><clipPath id="094241de58"><path d="M 153 119.632812 L 218 119.632812 L 218 255 L 153 255 Z M 153 119.632812 " clip-rule="nonzero"/></clipPath></defs><rect x="-37.5" width="450" fill="#ffffff" y="-37.499999" height="449.999989" fill-opacity="1"/><rect x="-37.5" width="450" fill="#ffffff" y="-37.499999" height="449.999989" fill-opacity="1"/><g clip-path="url(#094241de58)"><path fill="#000000" d="M 169.898438 223.914062 C 172.269531 220.796875 174.945312 218.203125 177.867188 213.84375 C 176.679688 214.535156 176.046875 214.894531 174.972656 215.417969 C 179.273438 211.664062 183.574219 206.367188 185.0625 201.042969 C 185.804688 198.421875 185.777344 189.894531 184.261719 186.089844 C 183.132812 187.441406 181.945312 188.847656 180.789062 190.199219 C 182 188.269531 183.65625 184.820312 184.34375 182.613281 C 182.582031 185.09375 180.484375 187.082031 178.335938 188.847656 C 180.761719 186.003906 182.9375 182.96875 183.628906 181.535156 C 181.53125 171.960938 187.488281 164.210938 190.492188 155.933594 L 186.550781 156.953125 C 188.480469 155.90625 190.574219 154.800781 191.511719 153.613281 C 194.875 145.722656 197.578125 128.257812 189.582031 119.84375 C 191.347656 124.617188 191.015625 130.273438 188.257812 134.6875 C 188.480469 136.039062 188.589844 136.894531 188.617188 138.578125 L 187.542969 135.433594 C 186.382812 139.460938 182.636719 144.507812 180.734375 147.628906 C 180.761719 149.0625 180.734375 150.304688 180.59375 151.960938 L 180.125 149.308594 C 174.863281 156.84375 167.804688 163.296875 163.199219 170.636719 C 158.375 178.308594 157.382812 185.785156 160.941406 197.070312 C 157.878906 191.632812 157.191406 185.011719 157.605469 181.507812 C 154.628906 186.585938 153.496094 193.785156 154.515625 199.582031 L 153.332031 198.421875 C 152.972656 204.132812 155.757812 209.621094 159.5625 215.445312 L 156.777344 213.070312 C 159.535156 217.734375 163.394531 221.734375 165.738281 223.941406 C 164.109375 210.890625 164.828125 197.289062 167.832031 185.425781 C 169.734375 178.003906 172.519531 171.246094 175.9375 164.484375 C 177.589844 161.203125 187.84375 144.703125 189.582031 140.730469 C 187.902344 145.863281 177.949219 162.386719 176.101562 166.277344 C 169.511719 180.238281 166.453125 192.460938 166.148438 209.789062 C 166.066406 214.394531 166.425781 220.382812 166.867188 225.101562 L 162.703125 225.101562 C 162.375 225.101562 162.070312 225.378906 162.070312 225.734375 C 162.070312 226.066406 162.347656 226.371094 162.703125 226.371094 L 172.324219 226.371094 C 172.65625 226.371094 172.960938 226.09375 172.960938 225.734375 C 172.960938 225.40625 172.683594 225.101562 172.324219 225.101562 L 168.078125 225.101562 C 167.667969 221.238281 167.335938 215.554688 167.445312 209.375 C 167.640625 199.167969 168.851562 187.855469 171.195312 182.941406 C 168.878906 191.6875 167.859375 209.210938 169.898438 223.914062 Z M 167.613281 250.566406 C 179.960938 254.042969 194.765625 253.574219 207.472656 250.871094 C 221.972656 247.78125 211.828125 245.214844 202.207031 243.945312 C 198.515625 243.449219 183.378906 241.296875 187.238281 237.765625 C 191.234375 234.066406 205.046875 238.261719 207.914062 233.269531 C 210.035156 229.625 209.898438 229.625 215.328125 228.300781 C 216.101562 228.109375 216.40625 227.941406 216.625 227.5 C 216.320312 228.246094 215.550781 228.328125 214.335938 228.660156 C 209.097656 230.066406 210.339844 231.640625 208.714844 234.207031 C 206.011719 238.511719 190.300781 236.386719 189.335938 238.648438 C 188.3125 241.074219 205.820312 242.925781 208.742188 243.476562 C 217.921875 245.242188 221.144531 248.773438 211.304688 251.503906 C 197.851562 255.175781 180.375 254.898438 167.613281 250.566406 Z M 160.859375 239.144531 C 163.695312 242.042969 166.371094 245.214844 167.113281 249.851562 L 167.199219 249.851562 L 167.199219 239.035156 C 166.675781 238.894531 166.289062 238.425781 166.289062 237.847656 C 166.289062 237.1875 166.839844 236.632812 167.5 236.632812 C 168.164062 236.632812 168.714844 237.1875 168.714844 237.847656 C 168.714844 238.398438 168.328125 238.894531 167.804688 239.035156 L 167.804688 249.820312 L 167.886719 249.820312 C 168.632812 245.1875 171.277344 242.015625 174.144531 239.117188 C 172.820312 235.832031 171.910156 231.859375 171.25 227.558594 L 163.753906 227.558594 C 163.117188 231.886719 162.179688 235.832031 160.859375 239.144531 Z M 160.859375 239.144531 " fill-opacity="1" fill-rule="evenodd"/></g></svg>